<?xml version="1.0" encoding="UTF-8" standalone="no"?>
<!-- Created with Inkscape (http://www.inkscape.org/) -->
<svg id="svg2" xmlns:rdf="http://www.w3.org/1999/02/22-rdf-syntax-ns#" xmlns="http://www.w3.org/2000/svg" height="420.51" width="492.5" version="1.1" xmlns:cc="http://creativecommons.org/ns#" xmlns:dc="http://purl.org/dc/elements/1.1/">
 <defs id="defs4"></defs>
 <metadata id="metadata7">
  <rdf:RDF>
   <cc:Work rdf:about="">
    <dc:format>image/svg+xml</dc:format>
    <dc:type rdf:resource="http://purl.org/dc/dcmitype/StillImage"/>
    <dc:title/>
   </cc:Work>
  </rdf:RDF>
 </metadata>
 <g id="layer1" transform="translate(-8.480239,-193.34088)">
  <g id="g4405" transform="matrix(1.1900764,0,0,1.1900764,-1.6118939,-36.749556)">
   <path id="path3052" d="m126.66,298.75c58.382-60.134-83.186,81.825,0.61698,80.586,83.803-1.2385-61.898-138.95-1.7646-80.569,60.134,58.382-81.825-83.186-80.586,0.61698,1.2385,83.803,138.95-61.898,80.569-1.7646-58.382,60.134,83.186-81.825-0.61697-80.586-83.803,1.2385,61.898,138.95,1.7646,80.569-60.134-58.382,81.825,83.186,80.586-0.61697-1.2385-83.803-138.95,61.898-80.569,1.7646z" transform="translate(-30.480244,72.588221)" fill="#2a7cdf"/>
   <path id="path3060" d="m246.31,330.79-65.214,0,0-65.214,65.214,0z" transform="translate(59.555688,12.43769)" fill="#009f5d"/>
   <path id="path3062" transform="matrix(0.98762405,0.15683983,-0.15683983,0.98762405,108.96203,107.30995)" fill="#009f5d" d="m246.31,330.79-53.542,8.4802-24.611-48.301,38.332-38.332,48.301,24.611z"/>
   <path id="path3064" d="m421.19,300.45c0,5.9324-4.8092,10.742-10.742,10.742-5.9324,0-10.742-4.8092-10.742-10.742,0-5.9324,4.8092-10.742,10.742-10.742,5.9324,0,10.742,4.8092,10.742,10.742z" transform="translate(-57.665653,29.963526)" fill="#f6c000"/>
   <path id="path3066" d="m421.19,300.45c0,5.9324-4.8092,10.742-10.742,10.742-5.9324,0-10.742-4.8092-10.742-10.742,0-5.9324,4.8092-10.742,10.742-10.742,5.9324,0,10.742,4.8092,10.742,10.742z" transform="translate(-50.316109,0.84798426)" fill="#f6c000"/>
   <path id="path3068" d="m421.19,300.45c0,5.9324-4.8092,10.742-10.742,10.742-5.9324,0-10.742-4.8092-10.742-10.742,0-5.9324,4.8092-10.742,10.742-10.742,5.9324,0,10.742,4.8092,10.742,10.742z" transform="translate(-61.057751,-28.267477)" fill="#f6c000"/>
   <path id="path3070" d="m421.19,300.45c0,5.9324-4.8092,10.742-10.742,10.742-5.9324,0-10.742-4.8092-10.742-10.742,0-5.9324,4.8092-10.742,10.742-10.742,5.9324,0,10.742,4.8092,10.742,10.742z" transform="translate(-47.489362,157.16717)" fill="#f6c000"/>
   <path id="path3072" d="m421.19,300.45c0,5.9324-4.8092,10.742-10.742,10.742-5.9324,0-10.742-4.8092-10.742-10.742,0-5.9324,4.8092-10.742,10.742-10.742,5.9324,0,10.742,4.8092,10.742,10.742z" transform="translate(-72.930091,138.51063)" fill="#f6c000"/>
   <path id="path3074" d="m421.19,300.45c0,5.9324-4.8092,10.742-10.742,10.742-5.9324,0-10.742-4.8092-10.742-10.742,0-5.9324,4.8092-10.742,10.742-10.742,5.9324,0,10.742,4.8092,10.742,10.742z" transform="translate(-76.887538,98.93617)" fill="#f6c000"/>
   <path id="path3076" d="m421.19,300.45c0,5.9324-4.8092,10.742-10.742,10.742-5.9324,0-10.742-4.8092-10.742-10.742,0-5.9324,4.8092-10.742,10.742-10.742,5.9324,0,10.742,4.8092,10.742,10.742z" transform="translate(-45.793313,122.68084)" fill="#f6c000"/>
   <path id="path4302" d="m434.75,310.34c0,33.253-49.611,60.21-110.81,60.21-61.198,0-110.81-26.957-110.81-60.21s49.611-60.21,110.81-60.21c61.198,0,110.81,26.957,110.81,60.21z" fill-opacity="0.17351601" transform="translate(-12.43769,-1.1306991)" fill="#f6c000"/>
   <path id="path4304" d="m434.75,310.34c0,33.253-49.611,60.21-110.81,60.21-61.198,0-110.81-26.957-110.81-60.21s49.611-60.21,110.81-60.21c61.198,0,110.81,26.957,110.81,60.21z" fill-opacity="0.17351601" transform="translate(-12.43769,122.8693)" fill="#f6c000"/>
   <path id="path4306" d="m279.28,394.01c0,97.573-60.621,176.67-135.4,176.67-74.78,0-135.4-79.099-135.4-176.67,0-97.573,60.621-176.67,135.4-176.67,74.687,0,135.27,78.91,135.4,176.36l-135.4,0.30968z" fill-opacity="0.17351601" transform="matrix(1.1878914,0,0,1,-1.5933645,-24)" fill="#3fc000"/>
  </g>
 </g>
</svg>
